<svg width="102" height="42" viewBox="0 0 102 42" fill="none" xmlns="http://www.w3.org/2000/svg">
<g filter="url(#filter0_d_0_6)">
<path d="M4.92798 22.6159L8.57598 21.8159C8.61865 22.4985 8.88531 23.0745 9.37598 23.5439C9.88798 23.9919 10.5813 24.2159 11.456 24.2159C12.1173 24.2159 12.6293 24.0665 12.992 23.7679C13.3546 23.4692 13.536 23.0959 13.536 22.6479C13.536 21.8585 12.9706 21.3465 11.84 21.1119L9.75998 20.6319C8.28798 20.3119 7.17865 19.7359 6.43198 18.9039C5.70665 18.0719 5.34398 17.0799 5.34398 15.9279C5.34398 14.4985 5.89865 13.2825 7.00798 12.2799C8.13865 11.2772 9.54665 10.7759 11.232 10.7759C12.2986 10.7759 13.2373 10.9359 14.048 11.2559C14.8586 11.5545 15.488 11.9492 15.936 12.4399C16.384 12.9092 16.7253 13.3892 16.96 13.8799C17.1946 14.3705 17.344 14.8505 17.408 15.3199L13.856 16.1199C13.7706 15.5652 13.5146 15.0745 13.088 14.6479C12.6826 14.2212 12.0746 14.0079 11.264 14.0079C10.7093 14.0079 10.2293 14.1572 9.82398 14.4559C9.43998 14.7545 9.24798 15.1279 9.24798 15.5759C9.24798 16.3439 9.72798 16.8132 10.688 16.9839L12.928 17.4639C14.4426 17.7839 15.5946 18.3705 16.384 19.2239C17.1946 20.0772 17.6 21.1012 17.6 22.2959C17.6 23.7039 17.0666 24.9199 16 25.9439C14.9333 26.9679 13.4293 27.4799 11.488 27.4799C10.3786 27.4799 9.38665 27.3199 8.51198 26.9999C7.63731 26.6585 6.95465 26.2319 6.46398 25.7199C5.99465 25.1865 5.63198 24.6639 5.37598 24.1519C5.14131 23.6185 4.99198 23.1065 4.92798 22.6159Z" fill="#505050"/>
<path d="M29.601 26.9999C29.5156 26.5732 29.473 26.0079 29.473 25.3039C29.0676 26.0079 28.4596 26.5412 27.649 26.9039C26.8596 27.2452 26.017 27.4159 25.121 27.4159C23.265 27.4159 21.8036 26.8292 20.737 25.6559C19.6703 24.4612 19.137 22.9785 19.137 21.2079V11.2559H23.393V20.3439C23.393 21.2825 23.6383 22.0505 24.129 22.6479C24.6196 23.2239 25.3343 23.5119 26.273 23.5119C27.1903 23.5119 27.9156 23.2345 28.449 22.6799C28.9823 22.1039 29.249 21.3465 29.249 20.4079V11.2559H33.505V24.1519C33.505 25.1545 33.5583 26.1039 33.665 26.9999H29.601Z" fill="#505050"/>
<path d="M40.703 17.9439V26.9999H36.447V11.2559H40.575V13.2079C41.023 12.4399 41.663 11.8532 42.495 11.4479C43.327 11.0425 44.2016 10.8399 45.119 10.8399C46.975 10.8399 48.383 11.4265 49.343 12.5999C50.3243 13.7519 50.815 15.2452 50.815 17.0799V26.9999H46.559V17.8159C46.559 16.8772 46.3136 16.1199 45.823 15.5439C45.3536 14.9679 44.6283 14.6799 43.647 14.6799C42.751 14.6799 42.0363 14.9892 41.503 15.6079C40.9696 16.2265 40.703 17.0052 40.703 17.9439Z" fill="#505050"/>
<path d="M57.7905 17.9439V26.9999H53.5345V11.2559H57.6625V13.2079C58.1105 12.4399 58.7505 11.8532 59.5825 11.4479C60.4145 11.0425 61.2891 10.8399 62.2065 10.8399C64.0625 10.8399 65.4705 11.4265 66.4305 12.5999C67.4118 13.7519 67.9025 15.2452 67.9025 17.0799V26.9999H63.6465V17.8159C63.6465 16.8772 63.4011 16.1199 62.9105 15.5439C62.4411 14.9679 61.7158 14.6799 60.7345 14.6799C59.8385 14.6799 59.1238 14.9892 58.5905 15.6079C58.0571 16.2265 57.7905 17.0052 57.7905 17.9439Z" fill="#505050"/>
<path d="M75.7807 33.2079H71.2687L74.9807 25.0159L68.2927 11.2559H73.0607L77.2527 20.4719L81.1247 11.2559H85.6687L75.7807 33.2079Z" fill="#505050"/>
</g>
<path d="M91.128 1.84794V0.491943H84.156V1.84794H86.916V8.99994H88.356V1.84794H91.128Z" fill="#505050"/>
<path d="M101.669 8.99994V0.491943H99.7131L96.9891 6.98394L94.2291 0.491943H92.3091V8.99994H93.7131V2.75994L96.3411 8.99994H97.5891L100.241 2.73594V8.99994H101.669Z" fill="#505050"/>
<defs>
<filter id="filter0_d_0_6" x="0.927979" y="10.7759" width="88.7407" height="30.4319" filterUnits="userSpaceOnUse" color-interpolation-filters="sRGB">
<feFlood flood-opacity="0" result="BackgroundImageFix"/>
<feColorMatrix in="SourceAlpha" type="matrix" values="0 0 0 0 0 0 0 0 0 0 0 0 0 0 0 0 0 0 127 0" result="hardAlpha"/>
<feOffset dy="4"/>
<feGaussianBlur stdDeviation="2"/>
<feComposite in2="hardAlpha" operator="out"/>
<feColorMatrix type="matrix" values="0 0 0 0 0 0 0 0 0 0 0 0 0 0 0 0 0 0 0.25 0"/>
<feBlend mode="normal" in2="BackgroundImageFix" result="effect1_dropShadow_0_6"/>
<feBlend mode="normal" in="SourceGraphic" in2="effect1_dropShadow_0_6" result="shape"/>
</filter>
</defs>
</svg>
