<svg width="144" height="60" viewBox="0 0 144 60" fill="none" xmlns="http://www.w3.org/2000/svg">
<path d="M62.835 36.62H66.36V38H61.125V27.575H62.835V36.62ZM75.365 33.665C75.365 33.975 75.345 34.255 75.305 34.505H68.99C69.04 35.165 69.285 35.695 69.725 36.095C70.165 36.495 70.705 36.695 71.345 36.695C72.265 36.695 72.915 36.31 73.295 35.54H75.14C74.89 36.3 74.435 36.925 73.775 37.415C73.125 37.895 72.315 38.135 71.345 38.135C70.555 38.135 69.845 37.96 69.215 37.61C68.595 37.25 68.105 36.75 67.745 36.11C67.395 35.46 67.22 34.71 67.22 33.86C67.22 33.01 67.39 32.265 67.73 31.625C68.08 30.975 68.565 30.475 69.185 30.125C69.815 29.775 70.535 29.6 71.345 29.6C72.125 29.6 72.82 29.77 73.43 30.11C74.04 30.45 74.515 30.93 74.855 31.55C75.195 32.16 75.365 32.865 75.365 33.665ZM73.58 33.125C73.57 32.495 73.345 31.99 72.905 31.61C72.465 31.23 71.92 31.04 71.27 31.04C70.68 31.04 70.175 31.23 69.755 31.61C69.335 31.98 69.085 32.485 69.005 33.125H73.58ZM76.4779 33.83C76.4779 33 76.6479 32.265 76.9879 31.625C77.3379 30.985 77.8079 30.49 78.3979 30.14C78.9979 29.78 79.6579 29.6 80.3779 29.6C81.0279 29.6 81.5929 29.73 82.0729 29.99C82.5629 30.24 82.9529 30.555 83.2429 30.935V29.735H84.9679V38H83.2429V36.77C82.9529 37.16 82.5579 37.485 82.0579 37.745C81.5579 38.005 80.9879 38.135 80.3479 38.135C79.6379 38.135 78.9879 37.955 78.3979 37.595C77.8079 37.225 77.3379 36.715 76.9879 36.065C76.6479 35.405 76.4779 34.66 76.4779 33.83ZM83.2429 33.86C83.2429 33.29 83.1229 32.795 82.8829 32.375C82.6529 31.955 82.3479 31.635 81.9679 31.415C81.5879 31.195 81.1779 31.085 80.7379 31.085C80.2979 31.085 79.8879 31.195 79.5079 31.415C79.1279 31.625 78.8179 31.94 78.5779 32.36C78.3479 32.77 78.2329 33.26 78.2329 33.83C78.2329 34.4 78.3479 34.9 78.5779 35.33C78.8179 35.76 79.1279 36.09 79.5079 36.32C79.8979 36.54 80.3079 36.65 80.7379 36.65C81.1779 36.65 81.5879 36.54 81.9679 36.32C82.3479 36.1 82.6529 35.78 82.8829 35.36C83.1229 34.93 83.2429 34.43 83.2429 33.86ZM88.9239 30.935C89.1739 30.515 89.5039 30.19 89.9139 29.96C90.3339 29.72 90.8289 29.6 91.3989 29.6V31.37H90.9639C90.2939 31.37 89.7839 31.54 89.4339 31.88C89.0939 32.22 88.9239 32.81 88.9239 33.65V38H87.2139V29.735H88.9239V30.935ZM97.1407 29.6C97.7907 29.6 98.3707 29.735 98.8807 30.005C99.4007 30.275 99.8057 30.675 100.096 31.205C100.386 31.735 100.531 32.375 100.531 33.125V38H98.8357V33.38C98.8357 32.64 98.6507 32.075 98.2807 31.685C97.9107 31.285 97.4057 31.085 96.7657 31.085C96.1257 31.085 95.6157 31.285 95.2357 31.685C94.8657 32.075 94.6807 32.64 94.6807 33.38V38H92.9707V29.735H94.6807V30.68C94.9607 30.34 95.3157 30.075 95.7457 29.885C96.1857 29.695 96.6507 29.6 97.1407 29.6ZM117.588 27.575V38H115.878V30.86L112.698 38H111.513L108.318 30.86V38H106.608V27.575H108.453L112.113 35.75L115.758 27.575H117.588ZM123.421 38.135C122.641 38.135 121.936 37.96 121.306 37.61C120.676 37.25 120.181 36.75 119.821 36.11C119.461 35.46 119.281 34.71 119.281 33.86C119.281 33.02 119.466 32.275 119.836 31.625C120.206 30.975 120.711 30.475 121.351 30.125C121.991 29.775 122.706 29.6 123.496 29.6C124.286 29.6 125.001 29.775 125.641 30.125C126.281 30.475 126.786 30.975 127.156 31.625C127.526 32.275 127.711 33.02 127.711 33.86C127.711 34.7 127.521 35.445 127.141 36.095C126.761 36.745 126.241 37.25 125.581 37.61C124.931 37.96 124.211 38.135 123.421 38.135ZM123.421 36.65C123.861 36.65 124.271 36.545 124.651 36.335C125.041 36.125 125.356 35.81 125.596 35.39C125.836 34.97 125.956 34.46 125.956 33.86C125.956 33.26 125.841 32.755 125.611 32.345C125.381 31.925 125.076 31.61 124.696 31.4C124.316 31.19 123.906 31.085 123.466 31.085C123.026 31.085 122.616 31.19 122.236 31.4C121.866 31.61 121.571 31.925 121.351 32.345C121.131 32.755 121.021 33.26 121.021 33.86C121.021 34.75 121.246 35.44 121.696 35.93C122.156 36.41 122.731 36.65 123.421 36.65ZM131.111 30.935C131.361 30.515 131.691 30.19 132.101 29.96C132.521 29.72 133.016 29.6 133.586 29.6V31.37H133.151C132.481 31.37 131.971 31.54 131.621 31.88C131.281 32.22 131.111 32.81 131.111 33.65V38H129.401V29.735H131.111V30.935ZM142.733 33.665C142.733 33.975 142.713 34.255 142.673 34.505H136.358C136.408 35.165 136.653 35.695 137.093 36.095C137.533 36.495 138.073 36.695 138.713 36.695C139.633 36.695 140.283 36.31 140.663 35.54H142.508C142.258 36.3 141.803 36.925 141.143 37.415C140.493 37.895 139.683 38.135 138.713 38.135C137.923 38.135 137.213 37.96 136.583 37.61C135.963 37.25 135.473 36.75 135.113 36.11C134.763 35.46 134.588 34.71 134.588 33.86C134.588 33.01 134.758 32.265 135.098 31.625C135.448 30.975 135.933 30.475 136.553 30.125C137.183 29.775 137.903 29.6 138.713 29.6C139.493 29.6 140.188 29.77 140.798 30.11C141.408 30.45 141.883 30.93 142.223 31.55C142.563 32.16 142.733 32.865 142.733 33.665ZM140.948 33.125C140.938 32.495 140.713 31.99 140.273 31.61C139.833 31.23 139.288 31.04 138.638 31.04C138.048 31.04 137.543 31.23 137.123 31.61C136.703 31.98 136.453 32.485 136.373 33.125H140.948Z" fill="#F93801"/>
<path d="M30 -1.31134e-06C22.0435 -9.63552e-07 14.4129 3.1607 8.7868 8.7868C3.1607 14.4129 -1.05843e-06 22.0435 -1.31134e-06 30C-1.56425e-06 37.9565 3.1607 45.5871 8.78679 51.2132C14.4129 56.8393 22.0435 60 30 60L30 59.2934C22.2309 59.2934 14.78 56.2071 9.28646 50.7135C3.79289 45.22 0.706635 37.7691 0.706635 30C0.706635 22.2309 3.79289 14.78 9.28646 9.28646C14.78 3.79289 22.2309 0.706634 30 0.706633L30 -1.31134e-06Z" fill="#F93801"/>
<path d="M42.9998 29.6C42.9998 29.4149 42.8878 29.1691 42.7742 29.0498L36.3744 22.2497C36.0756 21.9408 35.5915 21.905 35.2432 22.2185C34.9317 22.4988 34.924 23.0454 35.212 23.3498L40.3493 28.7998H19.8C19.3582 28.7998 19 29.158 19 29.5998C19 30.0417 19.3582 30.3998 19.8 30.3998H40.3493L35.212 35.8499C34.924 36.1542 34.9444 36.6874 35.2432 36.9811C35.5586 37.2912 36.0802 37.2636 36.3744 36.9499L42.7742 30.1499C42.9623 29.9655 42.9966 29.7878 42.9998 29.6Z" fill="#F93801"/>
</svg>
