<svg width="275" height="344" viewBox="0 0 275 344" fill="none" xmlns="http://www.w3.org/2000/svg">
<g filter="url(#filter0_b_0_45)">
<rect width="275" height="344" rx="20" fill="#FFF8E7"/>
</g>
<g opacity="0.04" filter="url(#filter1_b_0_45)">
<rect x="63" y="248" width="90" height="40" rx="20" fill="black"/>
<rect x="63.5" y="248.5" width="89" height="39" rx="19.5" stroke="black"/>
</g>
<g filter="url(#filter2_b_0_45)">
<rect x="63.5" y="248.5" width="89" height="39" rx="19.5" stroke="#392529"/>
</g>
<line x1="108.5" y1="249" x2="108.5" y2="287" stroke="#392529"/>
<path d="M128 264.307L131.092 268.147L128 271.987L128.954 273.172L133 268.147L128.954 263.122L128 264.307Z" fill="black"/>
<path d="M88 271.991L84.9083 268.151L88 264.311L87.0459 263.126L83 268.151L87.0459 273.176L88 271.991Z" fill="black"/>
<path d="M71.332 171.982V171.508H64.248L64.2129 174.725H64.6523L64.9688 173.916C65.1445 173.482 65.3965 173.23 65.7246 173.16C65.8652 173.137 66.0703 173.125 66.3398 173.125H69.1699L66.1289 176.605L66.5859 176.975C66.9844 176.811 67.377 176.729 67.7637 176.729C68.7129 176.729 69.2754 177.285 69.4512 178.398C69.4863 178.621 69.5039 178.85 69.5039 179.084C69.4805 180.971 68.6836 181.92 67.1133 181.932C66.4453 181.932 66.0469 181.645 65.918 181.07C65.8945 180.93 65.8711 180.707 65.8477 180.402C65.8125 179.805 65.7012 179.418 65.5137 179.242C65.3379 179.102 65.1035 179.031 64.8105 179.031C64.2012 179.031 63.8379 179.301 63.7207 179.84C63.6973 179.945 63.6855 180.051 63.6855 180.156C63.6855 181.094 64.2598 181.756 65.4082 182.143C65.9707 182.318 66.5977 182.406 67.2891 182.406C68.9766 182.406 70.2363 181.902 71.0684 180.895C71.5605 180.285 71.8066 179.6 71.8066 178.838C71.8066 177.818 71.3555 177.068 70.4531 176.588C69.8906 176.295 69.2051 176.148 68.3965 176.148C68.0098 176.148 67.6348 176.184 67.2715 176.254L71.332 171.982ZM77.5371 171.332C75.9551 171.332 74.7598 171.93 73.9512 173.125C73.377 173.98 73.0898 175.012 73.0898 176.219C73.0898 178.094 73.6641 179.471 74.8125 180.35C75.5391 180.9 76.418 181.176 77.4492 181.176C79.0195 181.176 80.209 180.572 81.0176 179.365C81.5684 178.521 81.8438 177.496 81.8438 176.289C81.8438 174.297 81.2344 172.879 80.0156 172.035C79.3242 171.566 78.498 171.332 77.5371 171.332ZM77.502 180.701C76.7051 180.701 76.1719 180.221 75.9023 179.26C75.7148 178.58 75.6211 177.59 75.6211 176.289C75.6211 173.898 75.9902 172.469 76.7285 172C76.9395 171.871 77.1914 171.807 77.4844 171.807C78.3633 171.807 78.9199 172.498 79.1543 173.881C79.2598 174.502 79.3125 175.275 79.3125 176.201C79.3125 178.439 79.0254 179.822 78.4512 180.35C78.1934 180.584 77.877 180.701 77.502 180.701ZM89.8066 180.543H89.4902L89.5078 176.008C89.5781 175.082 89.8828 174.479 90.4219 174.197C90.5742 174.115 90.7266 174.074 90.8789 174.074C91.3125 174.074 91.623 174.344 91.8105 174.883C91.8926 175.141 91.9336 175.428 91.9336 175.744V179.629C91.9336 180.109 91.8223 180.396 91.5996 180.49C91.4941 180.525 91.3477 180.543 91.1602 180.543V181H94.8867C94.8867 180.73 94.8105 180.584 94.6582 180.561C94.5879 180.549 94.5176 180.543 94.4473 180.543H94.1484V176.043V175.92C94.2305 174.947 94.5469 174.344 95.0977 174.109C95.2148 174.062 95.332 174.039 95.4492 174.039C95.9531 174.039 96.2988 174.338 96.4863 174.936C96.5566 175.182 96.5918 175.451 96.5918 175.744V179.629C96.5918 180.109 96.4805 180.396 96.2578 180.49C96.1523 180.525 96.0059 180.543 95.8184 180.543V181H99.8262C99.8262 180.73 99.75 180.584 99.5977 180.561C99.5273 180.549 99.457 180.543 99.3867 180.543H98.8066V175.955C98.8066 174.807 98.4258 173.992 97.6641 173.512C97.3125 173.289 96.9316 173.178 96.5215 173.178C95.3848 173.189 94.5352 173.734 93.9727 174.812C93.6914 173.98 93.1934 173.459 92.4785 173.248C92.291 173.201 92.1035 173.178 91.916 173.178C90.791 173.189 89.9707 173.705 89.4551 174.725L89.3672 173.441H86.2383V173.898H87.2578V179.629C87.2578 180.168 87.0059 180.467 86.502 180.525C86.4199 180.537 86.332 180.543 86.2383 180.543V181H90.2285C90.2285 180.73 90.1523 180.584 90 180.561C89.9414 180.549 89.877 180.543 89.8066 180.543ZM109.055 181L109.125 177.186H108.615L108.105 178.838C107.859 179.623 107.508 180.127 107.051 180.35C106.781 180.467 106.471 180.525 106.119 180.525H104.309V170.928H105.803V170.453H100.441V170.928H101.848V180.525H100.441V181H109.055Z" fill="black"/>
<path d="M73.2354 194.586L69.5163 194.313L68.1156 190.385L66.715 194.313L63 194.586L65.8494 197.286L64.9144 201.383L68.1156 199.124L71.3169 201.383L70.3819 197.286L73.2354 194.586Z" fill="#E79331"/>
<path d="M85.1765 194.586L81.4574 194.313L80.0568 190.385L78.6562 194.313L74.9412 194.586L77.7905 197.286L76.8555 201.383L80.0568 199.124L83.2581 201.383L82.3231 197.286L85.1765 194.586Z" fill="#E79331"/>
<path d="M97.1177 194.586L93.3986 194.313L91.998 190.385L90.5973 194.313L86.8823 194.586L89.7317 197.286L88.7967 201.383L91.998 199.124L95.1992 201.383L94.2642 197.286L97.1177 194.586Z" fill="#E79331"/>
<path d="M109.059 194.586L105.34 194.313L103.939 190.385L102.538 194.313L98.8235 194.586L101.673 197.286L100.738 201.383L103.939 199.124L107.14 201.383L106.205 197.286L109.059 194.586Z" fill="#E79331"/>
<path d="M121 194.586L117.281 194.313L115.88 190.385L114.48 194.313L110.765 194.586L113.614 197.286L112.679 201.383L115.88 199.124L119.082 201.383L118.147 197.286L121 194.586Z" fill="#2F1319"/>
<path d="M70.3477 95.5566C70.3477 93.7754 71.3125 92.7487 73.2422 92.4766C73.2669 92.4766 73.2917 92.4766 73.3164 92.4766V99.9355C71.362 98.6738 70.3724 97.2142 70.3477 95.5566ZM77.6211 109.436C77.5716 111.514 76.4954 112.738 74.3926 113.109V105.02C76.4707 106.405 77.5469 107.877 77.6211 109.436ZM74.3926 117.377V114.334C77.5592 114.136 79.8477 113.146 81.2578 111.365C82.0742 110.351 82.4824 109.163 82.4824 107.803C82.4824 105.972 81.3815 104.376 79.1797 103.016C78.9076 102.867 77.5592 102.174 75.1348 100.938C74.8626 100.814 74.6152 100.69 74.3926 100.566V92.4395C75.5059 92.4395 76.2109 92.959 76.5078 93.998C76.582 94.196 76.6562 94.5176 76.7305 94.9629C76.9284 96.1504 77.2624 96.9173 77.7324 97.2637C78.1777 97.5605 78.7467 97.709 79.4395 97.709C80.627 97.709 81.332 97.14 81.5547 96.002C81.5794 95.8288 81.5918 95.6432 81.5918 95.4453C81.5918 94.0846 80.5775 92.9961 78.5488 92.1797C77.3118 91.7096 75.9264 91.4375 74.3926 91.3633V88.0605H73.3164V91.3633C70.1992 91.4128 67.9108 92.2415 66.4512 93.8496C65.61 94.8145 65.1895 95.9525 65.1895 97.2637C65.1895 99.0944 66.3275 100.69 68.6035 102.051C68.8757 102.199 70.2734 102.904 72.7969 104.166C72.9948 104.265 73.168 104.352 73.3164 104.426V113.221H72.9824C71.5723 113.221 70.6569 112.639 70.2363 111.477C70.1621 111.229 70.0632 110.858 69.9395 110.363C69.6673 109.151 69.2962 108.372 68.8262 108.025C68.4056 107.704 67.8118 107.543 67.0449 107.543C65.8079 107.543 65.0039 108.025 64.6328 108.99C64.5339 109.262 64.4844 109.535 64.4844 109.807C64.4844 111.192 65.3379 112.318 67.0449 113.184C68.653 113.951 70.7435 114.346 73.3164 114.371V117.377H74.3926ZM92.6133 93.9609L84.709 98.9707L85.377 100.01L90.7207 96.7812V112.701L86.0078 113.035V114H99.8125C99.8125 113.48 99.5156 113.171 98.9219 113.072C98.8229 113.048 98.7363 113.035 98.6621 113.035L95.6934 112.701V93.9609H92.6133ZM111.057 93.5898C107.717 93.5898 105.193 94.8516 103.486 97.375C102.274 99.181 101.668 101.358 101.668 103.906C101.668 107.865 102.88 110.771 105.305 112.627C106.839 113.79 108.694 114.371 110.871 114.371C114.186 114.371 116.697 113.097 118.404 110.549C119.567 108.768 120.148 106.603 120.148 104.055C120.148 99.849 118.862 96.8555 116.289 95.0742C114.829 94.0846 113.085 93.5898 111.057 93.5898ZM110.982 113.369C109.3 113.369 108.174 112.355 107.605 110.326C107.21 108.891 107.012 106.801 107.012 104.055C107.012 99.0078 107.791 95.9896 109.35 95C109.795 94.7279 110.327 94.5918 110.945 94.5918C112.801 94.5918 113.976 96.0514 114.471 98.9707C114.693 100.282 114.805 101.915 114.805 103.869C114.805 108.594 114.199 111.514 112.986 112.627C112.442 113.122 111.774 113.369 110.982 113.369ZM132.135 93.5898C128.795 93.5898 126.271 94.8516 124.564 97.375C123.352 99.181 122.746 101.358 122.746 103.906C122.746 107.865 123.958 110.771 126.383 112.627C127.917 113.79 129.772 114.371 131.949 114.371C135.264 114.371 137.775 113.097 139.482 110.549C140.645 108.768 141.227 106.603 141.227 104.055C141.227 99.849 139.94 96.8555 137.367 95.0742C135.908 94.0846 134.163 93.5898 132.135 93.5898ZM132.061 113.369C130.378 113.369 129.253 112.355 128.684 110.326C128.288 108.891 128.09 106.801 128.09 104.055C128.09 99.0078 128.869 95.9896 130.428 95C130.873 94.7279 131.405 94.5918 132.023 94.5918C133.879 94.5918 135.054 96.0514 135.549 98.9707C135.771 100.282 135.883 101.915 135.883 103.869C135.883 108.594 135.277 111.514 134.064 112.627C133.52 113.122 132.852 113.369 132.061 113.369ZM148.686 111.588C148.686 110.549 148.215 109.77 147.275 109.25C146.88 109.052 146.471 108.953 146.051 108.953C145.012 108.953 144.245 109.423 143.75 110.363C143.552 110.759 143.453 111.167 143.453 111.588C143.453 112.652 143.923 113.419 144.863 113.889C145.234 114.087 145.63 114.186 146.051 114.186C147.115 114.186 147.894 113.74 148.389 112.85C148.587 112.454 148.686 112.033 148.686 111.588ZM167.76 116.412C167.76 115.818 167.599 115.497 167.277 115.447C167.154 115.423 167.018 115.41 166.869 115.41H164.531V110.809H167.76V109.695H164.531V101.828H163.678L163.158 103.424C162.837 104.413 162.218 104.982 161.303 105.131C161.006 105.18 160.635 105.205 160.189 105.205H159.744V109.658L151.469 109.621C152.062 109.126 153.015 108.347 154.326 107.283C158.408 103.943 161.13 101.482 162.49 99.8984C163.925 98.2656 164.643 96.9049 164.643 95.8164C164.643 94.6042 164.036 93.8372 162.824 93.5156C162.503 93.4414 162.169 93.4043 161.822 93.4043C160.61 93.4043 159.757 93.8991 159.262 94.8887C159.163 95.0866 158.816 96.138 158.223 98.043C157.109 101.531 155.167 104.624 152.396 107.32C151.58 108.112 150.714 108.879 149.799 109.621L150.021 110.734L159.744 110.771V115.41H155.514V116.412H167.76ZM187.502 109.77C187.502 106.875 186.29 104.846 183.865 103.684C182.702 103.139 181.379 102.867 179.895 102.867C177.866 102.892 175.973 103.424 174.217 104.463V97.5605C176.196 97.7832 177.94 97.8945 179.449 97.8945C182.121 97.8945 183.84 97.5482 184.607 96.8555C185.275 95.9896 185.622 94.5299 185.646 92.4766H184.645C184.348 93.293 183.853 93.8001 183.16 93.998C182.665 94.1465 181.96 94.2207 181.045 94.2207C180.377 94.2207 178.979 94.1712 176.852 94.0723C175.219 93.998 173.92 93.9362 172.955 93.8867V105.057L174.217 106.021C175.602 104.908 176.988 104.352 178.373 104.352C180.253 104.352 181.54 105.255 182.232 107.061C182.529 107.877 182.678 108.792 182.678 109.807C182.678 113.691 181.416 115.744 178.893 115.967C178.744 115.967 178.608 115.967 178.484 115.967C177.198 115.967 176.443 115.385 176.221 114.223C176.171 113.951 176.134 113.518 176.109 112.924C176.035 111.613 175.788 110.771 175.367 110.4C174.971 110.079 174.439 109.918 173.771 109.918C172.535 109.918 171.768 110.45 171.471 111.514C171.421 111.736 171.396 111.984 171.396 112.256C171.396 114.136 172.436 115.497 174.514 116.338C175.602 116.758 176.802 116.969 178.113 116.969C181.28 116.969 183.742 116.165 185.498 114.557C186.834 113.295 187.502 111.699 187.502 109.77Z" fill="black"/>
<path opacity="0.4" d="M69.04 55.1C70.52 55.1 71.8133 55.3867 72.92 55.96C74.04 56.52 74.9 57.3333 75.5 58.4C76.1133 59.4533 76.42 60.6867 76.42 62.1C76.42 63.5133 76.1133 64.74 75.5 65.78C74.9 66.82 74.04 67.62 72.92 68.18C71.8133 68.7267 70.52 69 69.04 69H64.5V55.1H69.04ZM69.04 67.14C70.6667 67.14 71.9133 66.7 72.78 65.82C73.6467 64.94 74.08 63.7 74.08 62.1C74.08 60.4867 73.6467 59.2267 72.78 58.32C71.9133 57.4133 70.6667 56.96 69.04 56.96H66.78V67.14H69.04ZM88.7797 63.22C88.7797 63.6333 88.753 64.0067 88.6997 64.34H80.2797C80.3464 65.22 80.673 65.9267 81.2597 66.46C81.8464 66.9933 82.5664 67.26 83.4197 67.26C84.6464 67.26 85.513 66.7467 86.0197 65.72H88.4797C88.1464 66.7333 87.5397 67.5667 86.6597 68.22C85.793 68.86 84.713 69.18 83.4197 69.18C82.3664 69.18 81.4197 68.9467 80.5797 68.48C79.753 68 79.0997 67.3333 78.6197 66.48C78.153 65.6133 77.9197 64.6133 77.9197 63.48C77.9197 62.3467 78.1464 61.3533 78.5997 60.5C79.0664 59.6333 79.713 58.9667 80.5397 58.5C81.3797 58.0333 82.3397 57.8 83.4197 57.8C84.4597 57.8 85.3864 58.0267 86.1997 58.48C87.013 58.9333 87.6464 59.5733 88.0997 60.4C88.553 61.2133 88.7797 62.1533 88.7797 63.22ZM86.3997 62.5C86.3864 61.66 86.0864 60.9867 85.4997 60.48C84.913 59.9733 84.1864 59.72 83.3197 59.72C82.533 59.72 81.8597 59.9733 81.2997 60.48C80.7397 60.9733 80.4064 61.6467 80.2997 62.5H86.3997ZM93.6834 59.84V65.94C93.6834 66.3533 93.7768 66.6533 93.9634 66.84C94.1634 67.0133 94.4968 67.1 94.9634 67.1H96.3634V69H94.5634C93.5368 69 92.7501 68.76 92.2034 68.28C91.6568 67.8 91.3834 67.02 91.3834 65.94V59.84H90.0834V57.98H91.3834V55.24H93.6834V57.98H96.3634V59.84H93.6834ZM97.7048 63.44C97.7048 62.3333 97.9315 61.3533 98.3848 60.5C98.8515 59.6467 99.4782 58.9867 100.265 58.52C101.065 58.04 101.945 57.8 102.905 57.8C103.772 57.8 104.525 57.9733 105.165 58.32C105.818 58.6533 106.338 59.0733 106.725 59.58V57.98H109.025V69H106.725V67.36C106.338 67.88 105.812 68.3133 105.145 68.66C104.478 69.0067 103.718 69.18 102.865 69.18C101.918 69.18 101.052 68.94 100.265 68.46C99.4782 67.9667 98.8515 67.2867 98.3848 66.42C97.9315 65.54 97.7048 64.5467 97.7048 63.44ZM106.725 63.48C106.725 62.72 106.565 62.06 106.245 61.5C105.938 60.94 105.532 60.5133 105.025 60.22C104.518 59.9267 103.972 59.78 103.385 59.78C102.798 59.78 102.252 59.9267 101.745 60.22C101.238 60.5 100.825 60.92 100.505 61.48C100.198 62.0267 100.045 62.68 100.045 63.44C100.045 64.2 100.198 64.8667 100.505 65.44C100.825 66.0133 101.238 66.4533 101.745 66.76C102.265 67.0533 102.812 67.2 103.385 67.2C103.972 67.2 104.518 67.0533 105.025 66.76C105.532 66.4667 105.938 66.04 106.245 65.48C106.565 64.9067 106.725 64.24 106.725 63.48ZM113.18 56.52C112.766 56.52 112.42 56.38 112.14 56.1C111.86 55.82 111.72 55.4733 111.72 55.06C111.72 54.6467 111.86 54.3 112.14 54.02C112.42 53.74 112.766 53.6 113.18 53.6C113.58 53.6 113.92 53.74 114.2 54.02C114.48 54.3 114.62 54.6467 114.62 55.06C114.62 55.4733 114.48 55.82 114.2 56.1C113.92 56.38 113.58 56.52 113.18 56.52ZM114.3 57.98V69H112.02V57.98H114.3ZM119.573 54.2V69H117.293V54.2H119.573ZM126.566 69.18C125.7 69.18 124.92 69.0267 124.226 68.72C123.546 68.4 123.006 67.9733 122.606 67.44C122.206 66.8933 121.993 66.2867 121.966 65.62H124.326C124.366 66.0867 124.586 66.48 124.986 66.8C125.4 67.1067 125.913 67.26 126.526 67.26C127.166 67.26 127.66 67.14 128.006 66.9C128.366 66.6467 128.546 66.3267 128.546 65.94C128.546 65.5267 128.346 65.22 127.946 65.02C127.56 64.82 126.94 64.6 126.086 64.36C125.26 64.1333 124.586 63.9133 124.066 63.7C123.546 63.4867 123.093 63.16 122.706 62.72C122.333 62.28 122.146 61.7 122.146 60.98C122.146 60.3933 122.32 59.86 122.666 59.38C123.013 58.8867 123.506 58.5 124.146 58.22C124.8 57.94 125.546 57.8 126.386 57.8C127.64 57.8 128.646 58.12 129.406 58.76C130.18 59.3867 130.593 60.2467 130.646 61.34H128.366C128.326 60.8467 128.126 60.4533 127.766 60.16C127.406 59.8667 126.92 59.72 126.306 59.72C125.706 59.72 125.246 59.8333 124.926 60.06C124.606 60.2867 124.446 60.5867 124.446 60.96C124.446 61.2533 124.553 61.5 124.766 61.7C124.98 61.9 125.24 62.06 125.546 62.18C125.853 62.2867 126.306 62.4267 126.906 62.6C127.706 62.8133 128.36 63.0333 128.866 63.26C129.386 63.4733 129.833 63.7933 130.206 64.22C130.58 64.6467 130.773 65.2133 130.786 65.92C130.786 66.5467 130.613 67.1067 130.266 67.6C129.92 68.0933 129.426 68.48 128.786 68.76C128.16 69.04 127.42 69.18 126.566 69.18Z" fill="black"/>
<defs>
<filter id="filter0_b_0_45" x="-164" y="-164" width="603" height="672" filterUnits="userSpaceOnUse" color-interpolation-filters="sRGB">
<feFlood flood-opacity="0" result="BackgroundImageFix"/>
<feGaussianBlur in="BackgroundImage" stdDeviation="82"/>
<feComposite in2="SourceAlpha" operator="in" result="effect1_backgroundBlur_0_45"/>
<feBlend mode="normal" in="SourceGraphic" in2="effect1_backgroundBlur_0_45" result="shape"/>
</filter>
<filter id="filter1_b_0_45" x="-37" y="148" width="290" height="240" filterUnits="userSpaceOnUse" color-interpolation-filters="sRGB">
<feFlood flood-opacity="0" result="BackgroundImageFix"/>
<feGaussianBlur in="BackgroundImage" stdDeviation="50"/>
<feComposite in2="SourceAlpha" operator="in" result="effect1_backgroundBlur_0_45"/>
<feBlend mode="normal" in="SourceGraphic" in2="effect1_backgroundBlur_0_45" result="shape"/>
</filter>
<filter id="filter2_b_0_45" x="-37" y="148" width="290" height="240" filterUnits="userSpaceOnUse" color-interpolation-filters="sRGB">
<feFlood flood-opacity="0" result="BackgroundImageFix"/>
<feGaussianBlur in="BackgroundImage" stdDeviation="50"/>
<feComposite in2="SourceAlpha" operator="in" result="effect1_backgroundBlur_0_45"/>
<feBlend mode="normal" in="SourceGraphic" in2="effect1_backgroundBlur_0_45" result="shape"/>
</filter>
</defs>
</svg>
